<?xml version="1.0" encoding="UTF-8"?>
<svg id="FiveVinesLogo" xmlns="http://www.w3.org/2000/svg" viewBox="0 0 240.21 176.82">
  <defs>
    <style>
      .cls-1 {
        fill: none;
        stroke: #231f20;
        stroke-miterlimit: 10;
        stroke-width: 2px;
      }
      .cls-2 {
        fill: #fff;
      }
      .cls-3 {
        fill: #ec2024;
      }
       .cls-4 {
        fill: none;
        stroke: #000;
        stroke-miterlimit: 10;
        stroke-width: 2px;
      }
      .stroke-path {
        fill: none;
        stroke: #fff;
        stroke-width: 2px;
      }
    </style>
  </defs>
  <g id="logo-main-group">
    <g id="Five_vines">
      <circle id="mainCircle" cx="120.11" cy="90.19" r="75.15"/>
      <g id="bottle-elements">
         <!-- Original red paths -->
        <path id="fiveShape" class="cls-3" d="M113.53,85.95c1.66-2.66,3.32-5.23,4.37-8.34-1.61-.14-3.58-.62-5.2-.62-3.91,0-6.2.33-8.64.65l4.08-27.23h13.26c.04-5.47-.3-9.55-.42-10.81-.57-.27-.82-.65-.93-.96-.04-.1-.06-.19-.07-.29h-22.11l-6.85,50.87c3.91-.49,8.64-1.14,14.67-1.14,2.23,0,4.28.33,6.24.54.11-.18.27-.57.38-.75.41-.64.82-1.27,1.22-1.92Z"/>
        <path class="cls-3" d="M85.26,128.68l-3.59,10.92c4.53,2.92,12.86,5.84,22.87,6.42l-1.04-11.7c-7.79-.78-14.52-3.44-18.24-5.65Z"/>
        <path class="cls-3" d="M129.92,39.08c.03-.28.25-.5.55-.58.16-.04.26-.09.32-.14h-12.31c.06.05.15.09.32.14.3.08.52.31.55.58.01.12.5,4.73.46,11.35h9.66c-.05-6.62.45-11.23.46-11.35Z"/>
        <path class="cls-3" d="M131.41,39.61c-.12,1.26-.45,5.35-.42,10.81h14.43v-12.06h-13c-.02.1-.04.2-.07.29-.11.31-.37.69-.94.96Z"/>
        <path class="cls-3" d="M137.24,86.15c-1.53-1.33-3.16-2.48-4.85-3.44-4.8-2.88-10.5-4.61-16.42-5.32-1.09,3.28-2.47,6.42-4.22,9.22-.4.65-.82,1.29-1.23,1.93-.02.03-.03.05-.05.08,15.57,2.19,22.43,11.1,22.57,22.95,0,14.18-11.58,22.99-25.11,22.99-.97,0-1.92-.03-2.86-.1l1.04,11.64c.66.02,1.32.03,1.99.03,17.9,0,31.84-9.39,37.14-23.32l1.6-4.32c2.52-17.92-3.77-26.1-7.23-30.18"/>

        <!-- Stroke animation paths (hidden in final state) -->
        <g id="stroke-paths-container">
            <path class="stroke-path" d="M147.46,112.53c-.25,3.63-1.01,7.08-2.23,10.28l-2.3,25.82s0,.09,0,.13c0,0,.09.95-.76,1.83-.92.96-2.56,1.52-4.91,1.66-.05,0-5.45.41-12.64.41s-12.58-.41-12.65-.41c-2.31-.14-3.95-.69-4.87-1.64-.87-.89-.78-1.82-.78-1.86,0-.04,0-.08,0-.13l-.23-2.54c-.52-.02-1.04-.04-1.56-.07l.24,2.66c-.02.32-.01,1.59,1.11,2.77,1.2,1.25,3.21,1.98,5.96,2.14.06,0,5.51.42,12.77.42s12.72-.41,12.76-.42c2.76-.17,4.77-.89,5.97-2.14,1.13-1.18,1.13-2.45,1.11-2.77l2.75-30.83c.15-1.9.22-3.67.23-5.33Z"/>
            <path class="stroke-path" d="M118.38,38.23c-.15-.4.37-1.31.79-1.78.98-1.03.64-2.16.26-2.71-.07-.25-.08-.64.84-1.03.28-.12.46-.38.44-.65-.02-.28-.23-.51-.53-.6-.19-.05-.39-.11-.57-.17-.42-.14-.8-.51-.84-.65-.34-1.35-.22-2.79.33-4.17.07-.18.54-.58.95-.72,1.88-.6,3.26-.86,4.61-.86s2.73.26,4.59.86c.43.15.9.55.97.73.55,1.37.67,2.81.33,4.17-.04.14-.42.5-.82.64-.21.06-.41.12-.61.18-.3.09-.51.32-.53.6-.02.28.15.53.43.66.91.38.89.78.83,1.02-.37.55-.72,1.68.24,2.69.43.49.96,1.39.81,1.8,0,.02-.03.07-.1.13h1.64c.19-1.17-.89-2.49-1.14-2.77-.53-.55-.18-1.08-.11-1.17.05-.06.09-.13.11-.2.16-.48.25-1.25-.42-1.94.55-.33,1.06-.83,1.18-1.34.4-1.6.27-3.29-.38-4.91-.26-.65-1.15-1.3-1.88-1.55-2.06-.66-3.6-.94-5.14-.94s-3.08.28-5.16.95c-.71.24-1.6.89-1.86,1.54-.65,1.61-.78,3.31-.38,4.9.12.5.61.99,1.15,1.33-.68.7-.6,1.48-.43,1.96.02.07.06.14.11.2.02.02.46.58-.13,1.19-.24.27-1.32,1.58-1.12,2.75h1.64c-.07-.05-.09-.1-.1-.12Z"/>
            <path class="stroke-path" d="M147.46,112.53c.06-.86.09-1.72.09-2.6,0-5.49-1.16-10.27-3.1-14.32,1.8,4.13,3.07,9.31,3.01,16.91Z"/>
            <path class="stroke-path" d="M137.24,86.15c2.89,2.51,5.4,5.67,7.21,9.47-1.28-2.94-2.83-5.36-4.36-7.74-.41-.64-.82-1.27-1.22-1.92-6.45-10.34-7.8-25.33-7.87-35.53h-1.54c.07,10.21,1.42,25.17,7.78,35.72Z"/>
            <path class="stroke-path" d="M103.57,117.77c-1.27-16.37,2.87-22.89,6.89-29.16-.54-.08-1.08-.14-1.64-.2-4.04,6.31-8.06,13.08-6.79,29.46l1.47,16.46c.52.05,1.04.09,1.56.13l-1.49-16.69Z"/>
            <path class="stroke-path" d="M118.26,50.42c-.05,7.58-.81,17.8-3.84,26.79.52.05,1.03.1,1.55.16,3.02-9.1,3.78-19.35,3.83-26.96h-1.54Z"/>
        </g>

        <!-- Original white fill paths -->
        <g id="fill-paths-container">
            <path class="cls-2" d="M147.46,112.53c-.25,3.63-1.01,7.08-2.23,10.28l-2.3,25.82s0,.09,0,.13c0,0,.09.95-.76,1.83-.92.96-2.56,1.52-4.91,1.66-.05,0-5.45.41-12.64.41s-12.58-.41-12.65-.41c-2.31-.14-3.95-.69-4.87-1.64-.87-.89-.78-1.82-.78-1.86,0-.04,0-.08,0-.13l-.23-2.54c-.52-.02-1.04-.04-1.56-.07l.24,2.66c-.02.32-.01,1.59,1.11,2.77,1.2,1.25,3.21,1.98,5.96,2.14.06,0,5.51.42,12.77.42s12.72-.41,12.76-.42c2.76-.17,4.77-.89,5.97-2.14,1.13-1.18,1.13-2.45,1.11-2.77l2.75-30.83c.15-1.9.22-3.67.23-5.33Z"/>
            <path class="cls-2" d="M118.38,38.23c-.15-.4.37-1.31.79-1.78.98-1.03.64-2.16.26-2.71-.07-.25-.08-.64.84-1.03.28-.12.46-.38.44-.65-.02-.28-.23-.51-.53-.6-.19-.05-.39-.11-.57-.17-.42-.14-.8-.51-.84-.65-.34-1.35-.22-2.79.33-4.17.07-.18.54-.58.95-.72,1.88-.6,3.26-.86,4.61-.86s2.73.26,4.59.86c.43.15.9.55.97.73.55,1.37.67,2.81.33,4.17-.04.14-.42.5-.82.64-.21.06-.41.12-.61.18-.3.09-.51.32-.53.6-.02.28.15.53.43.66.91.38.89.78.83,1.02-.37.55-.72,1.68.24,2.69.43.49.96,1.39.81,1.8,0,.02-.03.07-.1.13h1.64c.19-1.17-.89-2.49-1.14-2.77-.53-.55-.18-1.08-.11-1.17.05-.06.09-.13.11-.2.16-.48.25-1.25-.42-1.94.55-.33,1.06-.83,1.18-1.34.4-1.6.27-3.29-.38-4.91-.26-.65-1.15-1.3-1.88-1.55-2.06-.66-3.6-.94-5.14-.94s-3.08.28-5.16.95c-.71.24-1.6.89-1.86,1.54-.65,1.61-.78,3.31-.38,4.9.12.5.61.99,1.15,1.33-.68.7-.6,1.48-.43,1.96.02.07.06.14.11.2.02.02.46.58-.13,1.19-.24.27-1.32,1.58-1.12,2.75h1.64c-.07-.05-.09-.1-.1-.12Z"/>
            <path class="cls-2" d="M147.46,112.53c.06-.86.09-1.72.09-2.6,0-5.49-1.16-10.27-3.10-14.32,1.8,4.13,3.07,9.31,3.01,16.91Z"/>
            <path class="cls-2" d="M137.24,86.15c2.89,2.51,5.4,5.67,7.21,9.47-1.28-2.94-2.83-5.36-4.36-7.74-.41-.64-.82-1.27-1.22-1.92-6.45-10.34-7.8-25.33-7.87-35.53h-1.54c.07,10.21,1.42,25.17,7.78,35.72Z"/>
            <path class="cls-2" d="M103.57,117.77c-1.27-16.37,2.87-22.89,6.89-29.16-.54-.08-1.08-.14-1.64-.2-4.04,6.31-8.06,13.08-6.79,29.46l1.47,16.46c.52.05,1.04.09,1.56.13l-1.49-16.69Z"/>
            <path class="cls-2" d="M118.26,50.42c-.05,7.58-.81,17.8-3.84,26.79.52.05,1.03.1,1.55.16,3.02-9.10,3.78-19.35,3.83-26.96h-1.54Z"/>
        </g>
      </g>
    </g>
    <rect id="frame" class="cls-4" x="1" y="1" width="238.21" height="174.82"/>
  </g>
</svg>
