<?xml version="1.0" encoding="UTF-8"?>
<svg id="Layer_1" data-name="Layer 1" xmlns="http://www.w3.org/2000/svg" width="309.000000pt" height="130.000000pt" viewBox="0 0 309.000000 130.000000"
 preserveAspectRatio="xMidYMid meet">
  <defs>
    <style>
      .cls-1, .cls-2 {
        font-family: ArialMT, Arial;
        font-size: 35.22px;
      }

      .cls-1, .cls-2, .cls-3 {
        isolation: isolate;
      }

      .cls-1, .cls-2, .cls-4 {
        fill: #fff;
      }

      .cls-2 {
        letter-spacing: -.02em;
      }

      .cls-5 {
        fill: #a12020;
      }

      .cls-6 {
        fill: red;
      }
    </style>
  </defs>
 
  <g id="familyofeateries" transform="translate(-40,-370)">
    <g>
      <path class="cls-6" d="M254.81,397.71c0,.76-1.21,1.32-1.78,1.59s-.79.26-.98.57c-.15.19-.45,1.06-.45,1.85,0,.26-.57.57-.76.57-.15,0-.19-.08-.19-.23,0-.68.45-1.66,1.06-2.57-.76.08-1.59.15-2.35.15h-.04c-3.21,6.24-7.22,12.67-11.42,12.67-.79,0-1.59-.15-2.35-.45-1.48,2.61-3.52,4.16-5.14,4.16-.6,0-.91-.23-.91-.38,0-.19.23-.53.45-.53.15,0,.45.23.95.23,1.44,0,2.95-1.44,3.97-3.78-3.9-1.97-6.85-7.53-6.85-13.58,0-3.03.91-4.88,2.72-4.88,3.18,0,6.77,4.96,6.77,11.08,0,2.65-.6,4.99-1.51,6.88.61.23,1.25.34,1.89.34,2.91,0,6.17-5.94,9.38-12.14-1.32-.38-2.69-.91-3.63-.91-1.78,0-2.46.98-2.46,1.97,0,.15-.04.26-.15.26-.34,0-.61-.45-.61-.64,0-.79,1.32-2.23,4.5-2.23.87,0,1.85.23,2.88.49,1.59-3.03,3.14-6.01,4.65-8.36.61-.95,1.48-1.29,2.19-1.74h-.3c-4.05,0-8.25-2.95-11.88-2.95-1.63,0-3.22.79-3.22,3.03,0,2.72,2.95,6.77,5.52,6.77,1.48,0,1.93-1.1,1.93-2.31,0-2.31-1.85-3.56-1.85-3.82,0-.23.3-.49.45-.49.23,0,1.89,1.29,1.89,4.2,0,1.7-1.06,3.14-2.72,3.14-2.38,0-6.54-2.8-6.54-6.92,0-2.69,2.76-4.27,5.41-4.27,3.37,0,7.91,2.91,11.12,2.91.57,0,1.48-.76,2.08-1.29.3-.3.6-.53.98-.53.49,0,.72.23.72.6,0,.42-.08.83-2.8,2.12-1.1.53-3.06,5.26-5.67,10.4.76.19,1.51.3,2.23.3.76-1.02,1.66-1.85,2.23-1.85.3,0,.57.23.57.57h.02ZM235.21,410.73c.53-1.55.91-3.4.91-5.48,0-6.51-3.4-11.46-5.48-11.46-1.25,0-1.93,1.66-1.93,4.39,0,5.52,2.84,10.78,6.51,12.56h-.01Z"/>
      <path class="cls-6" d="M265.06,403.09c.26-.19.34-.26.45-.26.08,0,.15.08.15.15,0,.11-.04.19-.26.38-2.76,2.23-3.9,2.53-4.96,2.53-2,0-1.78-2.27-2.35-2.27s-3.03,3.4-5.14,3.4c-.57,0-1.17-.45-1.17-.95,0-3.06,4.88-7.53,7.64-7.53.64,0,1.17.64,1.17,1.32,0,.38-.53,1.29-.79,1.29-.11,0-.26-.15-.26-.3,0-.26.64-.49.64-1.17,0-.3-.3-.57-.72-.57-1.78,0-6.09,4.31-6.09,6.77,0,.26.15.42.38.42.76,0,2.57-1.74,3.63-2.88.98-1.06,1.25-1.51,1.82-1.51,1.29,0,.83,3.18,2.35,3.18.61,0,1.02-.04,3.52-2h-.01Z"/>
      <path class="cls-6" d="M274.06,398.77c.61,0,1.06.53,1.06.95,0,.64-2.84,3.63-2.84,4.05,0,.08.04.11.11.11.64,0,3.67-2.72,4.69-2.72.45,0,.87.26.87.64,0,.87-.49,1.7-.49,2.42,0,.68.42,1.32,1.4,1.32,1.13,0,2.12-.49,4.62-2.46.26-.19.34-.26.45-.26.08,0,.15.08.15.15,0,.11-.04.19-.26.38-2.76,2.23-4.12,2.84-5.75,2.84-1.17,0-2.04-.72-2.04-1.97,0-.72.19-1.4.19-1.63,0-.11-.04-.3-.23-.3-.53,0-4.35,3.1-5.14,3.1-.34,0-.79-.34-.79-.57,0-1.7,3.71-4.77,3.71-5.37,0-.11-.08-.19-.23-.19-1.21,0-5.03,3.18-7.38,5.26-1.21,1.1-1.44,1.82-2.23,1.82-.3,0-.45-.23-.45-.45,0-.38,2.23-4.73,3.97-6.58.64-.72,1.32-.95,1.89-.95.23,0,.45.04.45.19,0,.26-.76.83-1.44,1.66-1.1,1.32-2.12,3.1-2.31,3.75.23,0,5.41-5.18,8.02-5.18h0Z"/>
      <path class="cls-6" d="M289.87,403.09c.26-.19.34-.26.45-.26.08,0,.15.08.15.15,0,.11-.04.19-.26.38-2.76,2.23-4.58,3.25-5.75,3.25-.83,0-1.51-.49-1.51-1.51,0-2.19,3.78-6.62,4.61-6.62.61,0,.91.19.91.38s-.19.34-.53.72c-1.82,2.12-3.56,4.43-3.56,5.79,0,.38.19.64.6.64.98,0,2.38-.95,4.88-2.91h.01ZM290.78,394.69c0,.68-.95,1.51-1.74,1.51-.38,0-.64-.27-.64-.53,0-.79,1.1-1.51,1.48-1.51.34,0,.91.26.91.53h-.01Z"/>
      <path class="cls-6" d="M297.7,403.09c.26-.19.34-.26.45-.26.08,0,.15.08.15.15,0,.11-.04.19-.26.38-2,1.66-5.26,3.86-7.11,3.86-.91,0-1.78-.64-1.78-1.89,0-4.16,9.46-17.4,13.28-17.4.57,0,.98.34.98.95,0,4.24-9.65,12.22-11.54,13.5-.57.68-.95,2.19-.95,3.25,0,.64.3.91.76.91.76,0,3.52-1.48,6.01-3.44h0ZM292.1,401.57c3.33-2.57,10.59-9.38,10.59-12.44,0-.42-.15-.49-.42-.49-1.51,0-9,10.18-10.18,12.94h.01Z"/>
      <path class="cls-6" d="M298.3,406.26c-.68,0-1.32-.57-1.32-1.17,0-2.27,4.73-7.23,5.67-7.23.19,0,.34.19.34.34,0,.19-.23.3-.64.76-1.47,1.59-3.82,5.14-3.82,6.2,0,.26.15.45.45.45.87,0,3.82-2.53,5.56-4.31,1.59-1.63,2.16-2.46,2.61-2.46.42,0,.91.53.91.87,0,.57-1.25,3.4-2.69,6.28,1.17-.57,2.84-1.44,4.69-2.91.26-.19.34-.26.45-.26.08,0,.15.08.15.15,0,.11-.04.19-.26.38-2.31,1.85-3.82,2.38-5.33,3.22-2.84,5.6-7.19,11.95-11.46,11.95-1.1,0-1.82-.72-1.82-1.63,0-3.33,8.1-8.09,11.39-9.8,1.85-3.4,3.1-6.43,3.1-6.96-.53.49-5.67,6.13-7.98,6.13h0ZM302.8,407.74c-3.21,1.82-10.44,6.66-10.44,9.08,0,.72.34.95.83.95,3.21,0,6.96-5.22,9.61-10.02h0Z"/>
      <path class="cls-6" d="M327.12,402.82c.08,0,.15.08.15.15,0,.11-.04.19-.26.38-1.06.95-3.37,2.16-5.03,2.16h-.26c-1.02,1.13-2.23,1.97-3.21,1.97-1.17,0-2.31-.83-2.31-2.12,0-2.76,3.74-6.96,6.7-6.96.91,0,1.55.6,1.55,1.44,0,1.4-.87,3.29-2.04,4.88.08.04.23.08.38.08,1.51,0,2.72-.76,3.9-1.7.26-.19.34-.26.45-.26l-.02-.02ZM317.82,405.54c0,.61.34,1.17.91,1.17s1.48-.53,2.31-1.4c-.23-.11-.42-.27-.42-.42,0-.23.64-.87.95-.87.15,0,.26.11.38.23.91-1.25,1.63-2.8,1.63-4.35,0-.76-.26-1.06-.64-1.06-1.82,0-5.11,4.39-5.11,6.7h-.01Z"/>
      <path class="cls-6" d="M333.29,403.09c.26-.19.34-.26.45-.26.08,0,.15.08.15.15,0,.11-.04.19-.26.38-2.76,2.23-4.24,2.38-4.96,2.38-.19,0-.38,0-.53-.04.04.34.04.83.04,1.59,0,3.03-3.93,10.18-6.01,10.18-.61,0-1.32-.68-1.32-1.93,0-7.64,14.79-26.18,17.44-26.18.19,0,.38.34.38.49s-.08.23-.38.42c-.87.57-2.53,2.35-4.16,4.46-2.65,3.4-5.9,7.91-7.11,9.99.3-.15.6-.3.72-.3.26,0,.45.79,1.13.79.83,0,1.93-.15,4.43-2.12h-.01ZM321.98,416.06c0,.49.19.76.49.76,1.67,0,5.33-6.32,5.26-10.44,0-.49-.79-.95-1.21-1.06-.19,0-4.54,8.28-4.54,10.74Z"/>
    </g>
    <g>
      <path d="M99.27,485.16c0,.51-3.42,3.68-7.61,3.68-4.69,0-9.26-2.79-9.26-7.86,0-1.01,0-2.03.13-2.92-2.03.38-4.06.63-6.09.63-7.23,0-14.59-4.69-14.59-13.44,0-18.77,20.29-33.74,37.42-39.82-1.9-1.78-3.17-3.93-3.3-6.72-3.42.76-6.98,1.14-10.4,1.14-20.93,0-31.71-10.53-31.71-18.39s9.39-14.08,21.69-14.08c14.08,0,22.2,4.19,22.2,9.89,0,3.3-2.54,5.83-3.3,5.83-.38,0-.76-.25-.76-.63,0-.51.38-1.4.38-2.54,0-4.44-7.1-10.53-20.67-10.53-8.75,0-14.21,5.58-14.21,9.89,0,7.36,10.27,17.25,31.96,17.25,1.65,0,3.3-.13,4.95-.38,2.03-13.44,22.45-28.66,33.36-28.66,2.92,0,4.82,1.9,4.82,4.57,0,6.6-13.7,18.9-30.69,24.61-.13.63-.13,1.14-.13,1.65,0,1.9.25,3.8,1.14,5.45,3.42-.89,6.47-1.4,9.13-1.4,2.41,0,3.93.76,3.93,2.41,0,2.28-3.55,4.19-7.74,4.19-3.04,0-5.83-.63-8.24-1.9-14.21,5.07-30.82,19.41-30.82,35.64,0,8.12,3.42,12.18,10.53,12.18.51,0,1.14-.13,1.78-.13,4.06-17.5,23.59-37.03,35.13-37.03,2.41,0,3.93,2.03,3.93,4.57,0,9.13-15.73,27.01-32.98,33.74-.38,1.9-.63,3.68-.63,5.45,0,3.68,1.4,5.71,3.55,5.71,3.04,0,5.58-3.3,5.96-3.3s1.14.89,1.14,1.27v-.02ZM90.01,472.98c14.08-5.71,29.17-22.7,29.17-31.07,0-1.4-.76-2.16-1.78-2.16-9.01,0-22.96,18.26-27.4,33.23h.01ZM103.97,414.26c14.71-4.82,27.27-16.23,27.27-21.43,0-.89-.63-1.4-1.52-1.4-10.15,0-22.83,12.68-25.75,22.83ZM106.25,425.8c1.27,1.14,3.04,1.78,5.33,1.78,1.78,0,3.55-1.14,3.55-1.78,0-.38-.51-.63-3.55-.63-1.65,0-3.42.25-5.33.63Z"/>
      <path d="M167,446.09c.89-.63,1.14-.89,1.52-.89.25,0,.51.25.51.51,0,.38-.13.63-.89,1.27-9.26,7.48-13.06,8.5-16.61,8.5-7.1,0-6.21-7.36-7.86-7.36-1.9,0-10.02,11.16-17.25,11.16-2.28,0-4.44-1.78-4.44-3.42,0-10.27,16.61-24.99,26.13-24.99,2.28,0,4.06,1.9,4.06,4.19,0,1.52-1.27,4.82-2.16,4.82-.51,0-1.65-.76-1.65-1.27,0-.76,1.65-2.41,1.65-3.93,0-.76-.51-1.4-1.78-1.4-5.2,0-19.66,13.95-19.66,22.2,0,.51.25.89.63.89,2.54,0,8.24-5.45,11.79-9.26,3.17-3.42,4.69-5.71,6.47-5.71,5.07,0,3.93,11.03,7.99,11.03,2.03,0,3.42,0,11.54-6.34h.01Z"/>
      <path d="M185,417.55l2.41-3.81c1.9-3.17,2.79-5.45,3.55-6.34,1.14-1.4,3.68-1.9,4.69-1.9.89,0,2.16.38,2.16,1.14,0,2.03-2.28,6.21-5.45,11.29,5.33-.25,7.61-1.27,8.37-1.27.38,0,1.01.51,1.01,1.01,0,.63-4.57,2.03-10.78,2.28-8.62,13.19-22.58,31.58-22.58,38.18,0,1.39.89,2.16,1.65,2.16,2.28,0,13.7-7.61,22.07-14.2.89-.63,1.14-.89,1.52-.89.25,0,.51.25.51.51,0,.38-.13.63-.89,1.27-9.26,7.48-20.67,15.98-25.37,15.98-2.79,0-5.71-2.92-5.71-5.45,0-6.21,13.7-26.25,21.31-37.67-6.98-.38-9.39-1.78-9.39-2.54,0-.89,1.52-3.04,2.28-3.04.51,0,2.79,2.41,8.62,3.3h.02Z"/>
      <path d="M199.34,445.2c-.13.51-.13,1.14-.13,1.78,0,3.3,2.16,5.58,6.47,5.58,3.68,0,7.23-.13,15.35-6.47.89-.63,1.14-.89,1.52-.89.25,0,.51.25.51.51,0,.38-.13.63-.89,1.27-9.26,7.48-14.97,9.26-19.91,9.26-6.47,0-10.4-3.68-10.4-9.26,0-7.61,8.5-18.26,15.6-18.26,2.16,0,4.44,2.28,4.44,4.19,0,2.92-7.86,9.39-12.56,12.3h0ZM208.97,432.77c0-.51-.38-.89-1.01-.89-2.92,0-8.24,8.24-8.24,11.03.89-.38,9.26-7.48,9.26-10.15h0Z"/>
      <path d="M255.39,445.2c.25,0,.51.25.51.51,0,.38-.13.63-.89,1.27-9.26,7.48-15.98,13.06-22.2,13.06-3.42,0-7.48-1.14-7.48-5.71,0-6.85,11.29-12.81,11.29-14.08,0-.51-1.52-1.52-3.17-3.04-3.55,3.42-7.61,6.85-11.67,10.02-.63.51-.89.63-1.14.63-.38,0-.63-.25-.63-.63,0-.25.25-.51,1.01-1.14,4.06-3.04,8.12-6.47,11.42-9.89-1.65-1.65-2.92-3.93-2.92-6.72,0-5.2,6.85-9.89,10.15-9.89,1.52,0,2.92,1.65,2.92,3.42,0,3.04-2.16,6.72-5.58,10.53.89,3.68,2.92,4.95,2.92,6.59,0,3.3-7.48,8.88-7.48,15.35,0,1.9,1.39,2.28,2.03,2.28,4.19,0,11.03-5.07,19.41-11.67.89-.63,1.14-.89,1.52-.89h-.02ZM236.62,431.38c2.16-2.92,3.55-5.58,3.55-7.74,0-1.14-.63-1.52-1.27-1.52-.76,0-2.28,1.65-2.28,7.86,0,.51-.13,1.01,0,1.4Z"/>
      <path d="M275.18,446.09c.89-.63,1.14-.89,1.52-.89.25,0,.51.25.51.51,0,.38-.13.63-.89,1.27-9.26,7.48-15.35,10.91-19.28,10.91-2.79,0-5.45-1.65-5.45-5.07,0-7.36,12.56-22.2,15.85-22.2,2.16,0,3.55.89,3.55,1.52s-.13.89-1.27,2.16c-6.09,7.1-12.05,15.09-12.05,19.41,0,1.27.63,1.65,1.14,1.65,3.8,0,7.99-2.66,16.36-9.26h.01ZM278.35,417.81c0,2.66-3.3,5.71-5.96,5.71-1.65,0-2.66-.89-2.66-2.28,0-2.92,4.44-5.83,5.83-5.83,1.52,0,2.79,1.14,2.79,2.41h0Z"/>
      <path d="M282.4,445.2c-.13.51-.13,1.14-.13,1.78,0,3.3,2.16,5.58,6.47,5.58,3.68,0,7.23-.13,15.35-6.47.89-.63,1.14-.89,1.52-.89.25,0,.51.25.51.51,0,.38-.13.63-.89,1.27-9.26,7.48-14.97,9.26-19.91,9.26-6.47,0-10.4-3.68-10.4-9.26,0-7.61,8.5-18.26,15.6-18.26,2.16,0,4.44,2.28,4.44,4.19,0,2.92-7.86,9.39-12.56,12.3h0ZM292.04,432.77c0-.51-.38-.89-1.01-.89-2.92,0-8.24,8.24-8.24,11.03.89-.38,9.26-7.48,9.26-10.15h-.01Z"/>
      <path d="M318.55,452.94c-2.16,7.36-7.74,14.46-14.08,14.46-3.42,0-6.72-2.28-6.72-5.07,0-3.55,6.98-5.58,14.71-8.5,1.01-4.82,1.39-10.27,1.9-14.97-2.92,2.92-6.21,5.71-9.51,8.37-.63.51-.89.63-1.14.63-.38,0-.63-.25-.63-.63,0-.25.25-.51,1.01-1.14,3.68-2.79,7.36-5.96,10.53-9.13l.38-2.92c.51-3.8,5.2-7.1,8.5-7.1,1.14,0,1.65,1.01,1.65,1.78,0,1.4-4.19,4.95-6.34,7.1.38,2.41.63,6.09.63,10.78,0,1.52-.25,3.04-.51,4.57,3.17-1.39,6.21-3.17,8.62-5.07.89-.63,1.14-.89,1.52-.89.25,0,.51.25.51.51,0,.38-.13.63-.89,1.27-2.92,2.28-6.47,4.31-10.15,5.96h.01ZM304.6,465.62c3.8,0,6.09-4.44,7.48-10.15-6.09,2.28-10.65,4.44-10.65,7.23,0,1.9,1.78,2.92,3.17,2.92h0Z"/>
    </g>
  </g>
  
</svg>


