<?xml version="1.0" encoding="UTF-8"?>
<svg id="Layer_2" xmlns="http://www.w3.org/2000/svg" viewBox="0 0 240.21 176.82">
  <defs>
    <style>
      .cls-1 {
        fill: none;
        stroke: #231f20;
        stroke-miterlimit: 10;
        stroke-width: 2px;
      }

      .cls-2 {
        font-family: AdornSGarland-Regular, 'AdornS Garland';
        font-size: 6.84px;
      }

      .cls-3 {
        fill: #fff;
      }

      .cls-4 {
        letter-spacing: -.14em;
      }

      .cls-5 {
        letter-spacing: -.02em;
      }

      .cls-6 {
        font-family: Rusillaserif-Light, 'Rusilla serif';
        font-size: 25.45px;
        font-weight: 300;
      }

      .cls-6, .cls-7 {
        fill: #ec2024;
      }

      .cls-8 {
        letter-spacing: .07em;
      }

      .cls-9 {
        letter-spacing: .07em;
      }

      .cls-10 {
        letter-spacing: .06em;
      }

      .cls-11 {
        letter-spacing: .01em;
      }

      .cls-12 {
        letter-spacing: .04em;
      }

      .cls-13 {
        letter-spacing: .03em;
      }
    </style>
  </defs>
  <g id="Layer_1-2" data-name="Layer_1">
    <g id="Bistro">
      <g id="outerCircleGroup">
        <path id="outerCircleFill" class="cls-3" d="M120.76,159.68c-23.56,0-43.41-5.13-57.4-14.83-15.58-10.8-23.48-26.78-23.48-47.49,0-44.24,35.99-80.23,80.23-80.23s80.23,35.99,80.23,80.23c0,39.6-29.01,62.32-79.58,62.32Z"/>
        <path id="outerCircle" d="M120.11,19.63c42.86,0,77.73,34.87,77.73,77.73,0,19.92-7.33,35.21-21.8,45.46-13.25,9.39-32.37,14.35-55.28,14.35s-42.4-4.97-55.98-14.38c-14.87-10.31-22.41-25.59-22.41-45.43,0-42.86,34.87-77.73,77.73-77.73M120.11,14.63c-45.69,0-82.73,37.04-82.73,82.73s37.69,64.82,83.38,64.82,82.08-19.13,82.08-64.82S165.8,14.63,120.11,14.63h0Z"/>
      </g>
      <g id="hearthGroup">
        <path id="hearthFill" d="M77.38,116.53c-1.93,0-3.44-.58-4.63-1.77-2.57-2.58-3.8-8.27-3.77-17.39.11-28.19,23.05-51.13,51.13-51.13s51.01,22.94,51.13,51.13c.04,9.25-1.17,14.98-3.68,17.5-1.11,1.12-2.52,1.66-4.31,1.66-3.67,0-8.55-2.27-14.2-4.9-7.91-3.68-17.76-8.26-28.29-8.26s-20.43,4.52-28.46,8.16c-5.92,2.68-11.03,4.99-14.91,4.99h0Z"/>
        <path id="hearthOutline" d="M120.11,46.74c13.51,0,26.21,5.27,35.75,14.83,9.54,9.55,14.82,22.27,14.87,35.8.04,9.11-1.12,14.72-3.53,17.15-1.03,1.03-2.29,1.51-3.95,1.51-3.56,0-8.39-2.25-13.99-4.85-7.96-3.7-17.86-8.3-28.5-8.3s-20.59,4.55-28.67,8.2c-5.87,2.66-10.94,4.95-14.71,4.95-1.79,0-3.19-.53-4.28-1.63-2.47-2.48-3.66-8.05-3.62-17.04.05-13.54,5.34-26.25,14.87-35.8,9.55-9.56,22.24-14.83,35.75-14.83M120.11,45.74c-28.51,0-51.51,23.11-51.63,51.63-.06,14.98,3.24,19.67,8.9,19.67,9.47,0,25.53-13.15,43.38-13.15s33.4,13.15,42.48,13.15c5.43,0,8.55-4.69,8.49-19.67-.12-28.51-23.11-51.63-51.63-51.63h0Z"/>
      </g>
      <g id="hearthStoneText">
        <path id="letterH" class="cls-7" d="M51.72,81.63c-1.34-.32-2-.47-3.28-.82-1.07-.28-1.63.04-2,1.16-.02,0-.03,0-.06-.02.55-1.66.84-2.47,1.45-4.07.02,0,.03.01.06.02-.41,1.08-.16,1.63.9,1.92,1.27.36,1.94.52,3.27.85,1.15-3.2,1.77-4.74,3.12-7.68.46-1,.92-2.18.21-2.47-.9-.37-1.35-.55-2.22-.93-.99-.43-1.55-.24-2.02.75-.02,0-.03-.01-.05-.02.71-1.47,1.08-2.2,1.84-3.61.02.01.03.02.05.03-.51.95-.35,1.54.63,1.98,2.55,1.15,3.96,1.67,6.59,2.79,1.01.43,1.56.25,1.98-.58.02.01.03.02.05.03-.63,1.23-.93,1.86-1.52,3.15-.02,0-.03-.01-.06-.02.4-.87.17-1.37-.85-1.78-1.56-.64-2.37-.95-3.94-1.59.58.56.29,1.27-.38,2.77-1.27,2.8-1.85,4.26-2.94,7.3,1.37.34,2.07.51,3.42.86,1.09.28,1.64.03,1.98-.92.02,0,.04.01.06.02-.51,1.4-.76,2.12-1.23,3.59-.02,0-.04,0-.06-.01.32-.99.04-1.5-1.06-1.77-1.36-.33-2.06-.49-3.44-.82-.08.23-.12.35-.2.58-.53,1.56-1.06,3.47.31,3.72.34.06.68,0,.93-.09-.02.06-.03.09-.05.15-.33.2-.67.27-1.01.21-1.4-.25-1.22-2.5-.63-4.23.06-.18.09-.28.16-.46Z"/>
        <path id="letterE" class="cls-7" d="M64.01,67.52c.45-.79.27-1.29-.66-1.81-2.44-1.35-3.74-1.99-6.12-3.38-.91-.53-1.47-.41-2.02.49-.02-.01-.03-.02-.05-.03,1.91-3.15,2.93-4.65,5.09-7.46,1.27.19,1.92.28,3.21.5-.06.07-.08.11-.14.18-2.25-.3-3.61.18-4.87,1.97-.78,1.11-1.17,1.68-1.91,2.84,1.6,1.01,2.45,1.49,4.16,2.44.43-.68.64-1.01,1.08-1.67.83-1.25.86-1.92.05-2.46.05-.07.08-.11.13-.19.94.62,1.42.93,2.36,1.55-.05.07-.08.11-.13.18-.82-.53-1.48-.27-2.31.98-.44.66-.65.99-1.08,1.67,1.65.93,2.5,1.38,4.1,2.33,1.05-1.72,2.37-2.75,3.68-3.56.54-.33.8-.49,1.34-.79,2.03-1.16,3.21-1.71,3.84-2.46.84-.98.99-1.66.57-2.78.03-.03.05-.05.08-.09.56,1.33.41,2.39-.4,3.35-.93,1.1-2.59,1.92-4,2.68-.49.29-.74.43-1.23.74-2.22,1.4-3.33,2.44-4,3.55-.3.5-.45.75-.74,1.26-.02-.01-.03-.02-.05-.03Z"/>
        <path id="letterA" class="cls-7" d="M75.97,53.07c2.26,1.04,3.27.77,5.21-.83.02.03.03.05.05.08-2.62,2.16-3.36,2.42-5.7,1.37-1.63-.73-2.48-1.06-4.23-1.67-1.27,1.3-1.88,1.98-3.08,3.39.37.75.56,1.12.94,1.85.6,1.15,1,1.18,1.84.19.02.02.03.02.04.04-.68.82-1.02,1.23-1.68,2.09-.02-.01-.03-.02-.05-.04.32-.42.3-1.08-.02-1.7-1.53-2.91-2.3-4.37-3.47-7.49-2.62-.78-4.08-.49-5.33,1.01-.82.99-1.19,2.08-1.17,3.2-.04.05-.06.07-.09.12-.08-1.17.3-2.42,1.43-3.76,1.58-1.87,3.04-2.09,5.57-1.35,4.01,1.19,6.1,1.83,9.73,3.49ZM68.15,55.27c1.16-1.37,1.76-2.03,3-3.3-2.02-.69-3.07-1-5.14-1.59.76,2.01,1.2,2.98,2.14,4.89Z"/>
        <path id="letterR" class="cls-7" d="M70.23,47.08c1.14,1.26,3.16,1.21,4.62-.04.02.03.04.04.06.07-1.89,1.62-3.91,1.9-5.19.52-1.52-1.64-.7-4.84,2.63-7.48,3.23-2.57,6.73-2.9,7.85-1,.81,1.38.25,3.43-1.58,5.07.79-.4,1.59-.59,2.23-.34,1.34.54,1.99.83,3.26,1.44,2.21,1.07,3.55,1.23,5.1.37,1.15-.64,1.56-1.37,1.61-2.44.04-.02.06-.03.11-.05.12,1.24-.53,2.43-1.84,3.18-1.41.8-3.04.76-4.73-.06-1.66-.81-2.53-1.18-4.31-1.86-.95-.37-2.02.24-3.32,1.27.71.94,1.07,1.41,1.78,2.35.37.49.83,1.12,1.74.41.01.02.02.03.03.05-.96.75-1.43,1.13-2.36,1.93-.01-.02-.02-.03-.04-.04.88-.76.4-1.38.03-1.86-1.61-2.09-2.45-3.11-4.04-5.21-.37-.48-.84-1.14-1.89-.26-.01-.02-.02-.03-.03-.04,1.1-.93,1.67-1.38,2.8-2.24.01.02.02.03.03.05-1.08.82-.61,1.48-.25,1.97.83,1.13,1.26,1.69,2.11,2.82.49-.39.73-.58,1.23-.96,1.57-1.2,2.38-3.55,1.51-5-.99-1.64-4.12-1.64-6.94.6-2.68,2.13-3.67,5.21-2.24,6.8Z"/>
        <path id="letterT" class="cls-7" d="M78.14,38.32c.72-.37,1.31-.69,1.83-1.02.4-.25.71-.49,1.02-.75.83-.69,1.67-1.63,4.22-4.44.16-.19,2.19-2.42,5.19-3.67,2.59-1.08,4.88-1.02,5.74-.04-.05.02-.08.03-.13.04-.98-.78-2.99-.8-5.15.09-1.7.7-3.26,1.87-5.75,4.59-.33.36-.49.54-.81.9,1.45,3.11,2.21,4.65,3.7,7.74.26.55.6,1.26,1.6.74,0,.02.01.03.02.05-1.07.56-1.59.85-2.63,1.45-.01-.02-.02-.03-.03-.05.97-.57.63-1.28.36-1.82-1.46-2.97-2.22-4.44-3.66-7.42-1.32,1.17-2.12,1.88-3.04,2.45-.68.43-1.41.76-2.44,1.22-.02-.03-.03-.05-.05-.08Z"/>
        <path id="letterH2" class="cls-7" d="M91.91,35.91c-.43-1.14-.64-1.7-1.07-2.84-.36-.95-.85-1.17-1.7-.79,0-.02-.01-.03-.02-.05,1.27-.58,1.9-.85,3.18-1.36,0,.02.01.03.02.05-.86.35-1.05.87-.7,1.82.42,1.14.63,1.71,1.05,2.85,2.52-1.07,3.81-1.54,6.4-2.35.88-.28,1.9-.67,1.73-1.36-.22-.87-.32-1.31-.54-2.18-.24-.99-.68-1.29-1.57-1.02,0-.02,0-.03-.01-.06,1.31-.4,1.97-.58,3.29-.91,0,.02,0,.03.01.06-.89.23-1.16.72-.93,1.71.61,2.59.92,3.88,1.54,6.46.24.99.65,1.29,1.45,1.09,0,.02,0,.03.01.06-1.18.3-1.76.46-2.93.81,0-.02,0-.03-.01-.06.79-.24.99-.71.75-1.7-.38-1.52-.57-2.28-.94-3.8-.08.76-.7.99-2.02,1.41-2.46.78-3.68,1.23-6.08,2.24.43,1.18.65,1.77,1.08,2.94.35.95.78,1.2,1.54.89,0,.02.01.03.02.05-1.14.46-1.71.7-2.82,1.21,0-.02-.01-.03-.02-.05.75-.34.93-.85.57-1.8-.44-1.17-.66-1.76-1.11-2.93-.18.08-.27.12-.45.2-1.21.53-2.58,1.25-2.1,2.37.12.28.32.48.48.61-.05.02-.07.03-.11.06-.27-.12-.47-.32-.59-.6-.49-1.14.93-2.3,2.26-2.89.14-.06.21-.09.36-.16Z"/>
        <path id="letterAmpersand" class="cls-7" d="M130.18,31.07c-.08.67-.86,1.09-1.48,1.02-.27-.03-.44-.17-.42-.34.06-.57,1.52-.05,1.61-.8.07-.59-.58-1.05-1.45-1.14-1.74-.19-3.07.83-4.81,2.24-.1.07-.2.15-.28.22.68,1.07,1.25,2.18,1.19,3.36-.14,2.65-2.98,4.34-6.09,4.45-2.21.08-4.12-.98-4.53-2.92.1-.03.15-.05.25-.08.36,1.71,1.96,2.85,4.25,2.77,3.09-.11,5.33-1.83,5.44-4.49.04-1-.25-1.94-.77-2.89-1.58,1.29-3.1,2.73-5.55,2.84-1.88.09-3.09-.6-3.18-1.79-.17-2.09,2.8-3.53,6.05-4.67-.41-.6-.68-1.13-.69-1.75-.02-1.95,2.74-3.39,5.18-3.26,1.45.08,2.29.72,2.22,1.57-.12,1.56-2.75,2.31-6.04,3.46.05.15.13.33.23.48.25.41.61.87,1.05,1.52.27.39.56.77.82,1.18.08-.07.12-.1.2-.17,1.69-1.32,3.23-2.47,5.1-2.27.9.1,1.79.63,1.7 1.45ZM122.98,32.24c-.19-.31-.38-.61-.6-.9-.66-.92-1.32-1.64-1.81-2.3-4.02,1.43-5.07,2.67-4.97,4.32.07,1.08.85,1.71,2.19,1.65,2.18-.09,3.71-1.55,5.18-2.77ZM120.88,27.56c0,.4.05.75.13,1.08,3.37-1.16,5.35-1.88,5.44-3.3.05-.71-.49-1.26-1.59-1.32-2.24-.12-3.98,1.56-3.98,3.54Z"/>
        <path id="letterS" class="cls-7" d="M148.58,35.86c2.36,2.39,2.98,4.23,2.31,5.78-.99,2.29-3.96,2.45-6.83,1.32-3.26-1.28-5.33-3.84-4.72-6.26.46-1.86,2.48-2.88,4.53-2.17-.01.04-.02.05-.03.09-1.91-.74-3.87.34-4.31,2.09-.59,2.33,1.47,4.84,4.54,6.04,2.58,1.01,5.21.84,6.08-1.23.67-1.58-.09-3.48-3.1-6.24-2.32-2.13-3.17-3.26-2.86-4.3.38-1.31,2.4-1.76,4.63-.87,1.38.55,2.56,1.5,3.1,2.52.14.23.21.35.34.41.12.06.22-.04.34-.34.05.02.07.03.12.06-.29.72-.44,1.08-.73,1.8-.05-.02-.07-.03-.12-.06.6-1.49-.62-3.27-2.79-4.14-1.97-.79-3.78-.46-4.12.65-.44,1.47,1.97,3.18,3.62,4.85Z"/>
        <path id="letterT2" class="cls-7" d="M152.82,32.51c.69.43,1.26.77,1.8,1.04.42.21.78.35,1.14.48.99.35,2.19.55,5.79,1.24.24.04,3.09.57,5.79,2.58,2.33,1.73,3.61,3.85,3.36,5.18-.04-.04-.07-.06-.11-.09.03-1.33-1.12-3.17-3.06-4.62-1.52-1.14-3.32-1.88-6.81-2.56-.46-.09-.69-.13-1.15-.21-1.56,3.05-2.34,4.57-3.89,7.62-.28.54-.64,1.24.36,1.85l-.03.05c-1.05-.65-1.59-.96-2.66-1.56,0-.02.01-.03.02-.05,1.01.56,1.37-.14,1.64-.69,1.47-2.96,2.21-4.44,3.68-7.39-1.64-.51-2.64-.82-3.59-1.31-.71-.36-1.38-.82-2.3-1.47.01-.04.02-.05.04-.09Z"/>
        <path id="letterO" class="cls-7" d="M169.59,43.1c3.38,2.85,4.4,7.04,2.6,9.12-1.87,2.15-5.38,1.26-8.28-1.19-2.99-2.52-4.37-5.91-2.98-8.3,1.42-2.43,5.31-2.46,8.66.36ZM171.36,51.93c2.04-2.4,1.29-6.05-2.27-9.01-2.75-2.28-6-2.25-7.25-.17-1.55,2.6-.3,6,2.65,8.54,2.3,1.97,5.24,2.54,6.86.64Z"/>
        <path id="letterN" class="cls-7" d="M177.6,66.49c2.47-1.96,3.7-2.94,6.16-4.9.76-.6.84-1.18.26-2.05.02-.01.03-.02.04-.03.71,1.05,1.06,1.58,1.74,2.67-.02.01-.03.02-.04.03-.56-.9-1.1-1.02-1.86-.42-2.53,2-3.8,3-6.33,5-.03.21-.05.31-.08.51-.23,1.49-.03,2.5.78,3.9.31.54.6.94,1.11,1.53-.02.03-.03.04-.05.06-.83-.74-1.2-1.16-1.59-1.82-1.01-1.73-.99-3.16-.71-5.4.67-5.24.82-7.95.68-13.47-2.01,2.12-3.02,3.18-5.03,5.3-.68.71-.7,1.27-.12,1.96-.02.02-.02.02-.04.04-.7-.84-1.06-1.25-1.78-2.05.02-.02.02-.02.04-.04.6.66,1.09.64,1.77-.07,2.06-2.17,3.09-3.25,5.15-5.41,0-.27-.01-.4-.02-.67-.11-3.28-.78-5.21-2.05-6.45-.82-.8-1.67-1.08-2.37-.84-.04-.03-.05-.05-.09-.08.64-.35,1.84.07,2.83,1.04,1.51,1.48,2.41,4.08,2.47,7.82.09,5.67-.09,8.46-.85,13.83Z"/>
        <path id="letterE2" class="cls-7" d="M180.62,71.16c.47.84.96.96,1.76.44,2.11-1.37,3.16-2.06,5.26-3.43.81-.52.93-1.11.41-2.05.02-.01.03-.02.04-.03,1.83,3.3,2.67,5.03,4.21,8.65-.66,1.13-1,1.69-1.68,2.79-.04-.1-.06-.14-.1-.24,1.14-1.97,1.26-3.56.26-5.69-.62-1.33-.94-1.98-1.6-3.26-1.48.94-2.22,1.41-3.71,2.35.39.76.58,1.14.96,1.91.71,1.46,1.27,1.9,2.05,1.47.04.09.06.14.1.23-.9.49-1.35.74-2.24,1.24-.04-.09-.06-.13-.1-.22.77-.43.81-1.2.1-2.66-.38-.77-.57-1.15-.96-1.91-1.43.91-2.15,1.36-3.58,2.27,1,1.94,1.35,3.8,1.51,5.58.06.73.09,1.09.14,1.82.18,2.77.2,4.43.6,5.6.52,1.54,1.05,2.13,2.16,2.38.02.06.03.09.04.15-1.35-.24-2.21-1.05-2.72-2.54-.58-1.72-.64-4.02-.73-5.92-.05-.67-.08-1.01-.14-1.68-.3-3.04-.72-4.62-1.37-5.86-.29-.55-.44-.83-.74-1.37.02-.01.03-.02.05-.03Z"/>
      </g>
      <text id="bistroText" class="cls-6" transform="translate(87.89 135.02)">
        <tspan x="0" y="0">B</tspan>
        <tspan x="15" y="0">i</tspan>
        <tspan x="22" y="0">s</tspan>
        <tspan x="33" y="0">t</tspan>
        <tspan x="42" y="0">r</tspan>
        <tspan x="52" y="0">o</tspan>
      </text>
      <text id="taglineText" class="cls-2" transform="translate(72.11 144.58)"><tspan class="cls-8" x="10" y="5">"Gather, Savor, Repeat&quot;</tspan></text>
      <g id="utensilsGroup">
        <path id="fork" class="cls-3" d="M80.68,122.16c2.69-3.92,5.12-7.97,7.82-11.88,2.49-3.6,5.05-7.32,8.11-10.47,1.96-2.02,4.17-3.97,6.98-4.62.76-.18,1.54-.26,2.28-.51,3.79-1.25,5.86-6.3,7.76-9.5,1.98-3.33,5.74-9.14,7.98-12.83.28-.47.16-1.08-.29-1.39l-.02-.02c-.47-.33-1.12-.23-1.46.24l-10.45,14.5c-.33.45-.96.56-1.41.23s-.56-.96-.23-1.41l10.44-14.48c.34-.47.23-1.13-.24-1.47l-.14-.1c-.47-.33-1.12-.22-1.46.24l-10.44,14.48c-.33.45-.96.56-1.41.23s-.56-.96-.23-1.41l10.44-14.48c.34-.47.23-1.12-.23-1.46l-.14-.1c-.47-.34-1.13-.24-1.47.23l-10.44,14.48c-.33.45-.96.56-1.41.23s-.56-.96-.23-1.41l10.46-14.5c.34-.47.23-1.12-.23-1.46,0,0-.01-.01-.02-.02-.44-.32-1.06-.25-1.42.16-2.8,3.29-7.11,8.7-9.65,11.62-2.43,2.81-6.57,6.37-6.56,10.36,0,.78.16,1.55.24,2.33.27,2.87-.88,5.58-2.18,8.08-2.03,3.9-4.74,7.5-7.38,11-2.86,3.8-5.94,7.38-8.8,11.17"/>
        <path id="spoon" class="cls-3" d="M171.79,119.21c-.47-.55-18.77-25.01-21.57-28.75-3.31-4.41,2.48-8.87-1.97-14.79-3.76-5.01-13.36-11.71-18.49-7.86h0c-5.12,3.85-1.38,14.93,2.38,19.95,4.45,5.93,10.35,1.62,13.65,6.02,2.8,3.74,21.18,28.15,21.57,28.75"/>
      </g>
      <defs>
        <clipPath id="bistroMask">
          <path d="M77.38,116.53c-1.93,0-3.44-.58-4.63-1.77-2.57-2.58-3.8-8.27-3.77-17.39.11-28.19,23.05-51.13,51.13-51.13s51.01,22.94,51.13,51.13c.04,9.25-1.17,14.98-3.68,17.5-1.11,1.12-2.52,1.66-4.31,1.66-3.67,0-8.55-2.27-14.2-4.9-7.91-3.68-17.76-8.26-28.29-8.26s-20.43,4.52-28.46,8.16c-5.92,2.68-11.03,4.99-14.91,4.99h0Z"/>
        </clipPath>
      </defs>
      <path id="underlineScroll" class="cls-1" d="M87,140 Q120,142 153,140"/>
      <rect class="cls-1" x="1" y="1" width="238.21" height="174.82"/>
    </g>
  </g>
</svg>